<mxfile host="app.diagrams.net" modified="2023-09-23T17:21:09.770Z" agent="Mozilla/5.0 (Windows NT 10.0; Win64; x64) AppleWebKit/537.36 (KHTML, like Gecko) Chrome/117.0.0.0 Safari/537.36 Edg/117.0.2045.36" version="21.8.1" etag="XGyzmumdiTDIQjOHVgjE" type="github">
  <diagram name="PÃ¡gina-1" id="N3dewGuLw0sWKFviuK9k">
    <mxGraphModel>
      <root>
        <mxCell id="0" />
        <mxCell id="1" parent="0" />
      </root>
    </mxGraphModel>
  </diagram>
</mxfile>
